HIERARCHY
ROOT mixamorig:Hips
{
	OFFSET 0.000000 103.991501 0.000000
	CHANNELS 6 Xposition Yposition Zposition Xrotation Yrotation Zrotation
	JOINT mixamorig:Spine
	{
		OFFSET 0.000000 10.181602 0.131500
		CHANNELS 6 Xposition Yposition Zposition Xrotation Yrotation Zrotation
		JOINT mixamorig:Spine1
		{
			OFFSET 0.000000 10.083504 -1.000800
			CHANNELS 6 Xposition Yposition Zposition Xrotation Yrotation Zrotation
			JOINT mixamorig:Spine2
			{
				OFFSET 0.000000 9.100006 -1.373400
				CHANNELS 6 Xposition Yposition Zposition Xrotation Yrotation Zrotation
				JOINT mixamorig:Neck
				{
					OFFSET 0.000000 16.671707 -2.516200
					CHANNELS 6 Xposition Yposition Zposition Xrotation Yrotation Zrotation
					JOINT mixamorig:Head
					{
						OFFSET 0.000000 9.617905 1.685000
						CHANNELS 6 Xposition Yposition Zposition Xrotation Yrotation Zrotation
						JOINT mixamorig:HeadTop_End
						{
							OFFSET 0.000000 17.815201 2.585000
							CHANNELS 6 Xposition Yposition Zposition Xrotation Yrotation Zrotation
							End Site
							{
								OFFSET 0.000000 13.794495 0.000000
							}
						}
						JOINT mixamorig:LeftEye
						{
							OFFSET 3.067600 6.409500 9.283600
							CHANNELS 6 Xposition Yposition Zposition Xrotation Yrotation Zrotation
							End Site
							{
								OFFSET 0.000000 13.794495 0.000000
							}
						}
						JOINT mixamorig:RightEye
						{
							OFFSET -3.067600 6.409500 9.283500
							CHANNELS 6 Xposition Yposition Zposition Xrotation Yrotation Zrotation
							End Site
							{
								OFFSET 0.000000 13.794495 0.000000
							}
						}
					}
				}
				JOINT mixamorig:LeftShoulder
				{
					OFFSET 4.570400 10.945999 -2.628000
					CHANNELS 6 Xposition Yposition Zposition Xrotation Yrotation Zrotation
					JOINT mixamorig:LeftArm
					{
						OFFSET 10.592400 -0.524597 -2.232100
						CHANNELS 6 Xposition Yposition Zposition Xrotation Yrotation Zrotation
						JOINT mixamorig:LeftForeArm
						{
							OFFSET 27.841499 0.000000 0.000000
							CHANNELS 6 Xposition Yposition Zposition Xrotation Yrotation Zrotation
							JOINT mixamorig:LeftHand
							{
								OFFSET 28.328800 0.000000 0.000000
								CHANNELS 6 Xposition Yposition Zposition Xrotation Yrotation Zrotation
								JOINT mixamorig:LeftHandThumb1
								{
									OFFSET 2.466103 -1.576218 2.681689
									CHANNELS 6 Xposition Yposition Zposition Xrotation Yrotation Zrotation
									JOINT mixamorig:LeftHandThumb2
									{
										OFFSET 3.229782 -1.864716 1.864716
										CHANNELS 6 Xposition Yposition Zposition Xrotation Yrotation Zrotation
										JOINT mixamorig:LeftHandThumb3
										{
											OFFSET 2.652611 -1.531494 1.531488
											CHANNELS 6 Xposition Yposition Zposition Xrotation Yrotation Zrotation
											JOINT mixamorig:LeftHandThumb4
											{
												OFFSET 1.954605 -1.128494 1.128493
												CHANNELS 6 Xposition Yposition Zposition Xrotation Yrotation Zrotation
												End Site
												{
													OFFSET -0.000404 2.523392 0.000683
												}
											}
										}
									}
								}
								JOINT mixamorig:LeftHandIndex1
								{
									OFFSET 9.109299 -0.518112 2.259867
									CHANNELS 6 Xposition Yposition Zposition Xrotation Yrotation Zrotation
									JOINT mixamorig:LeftHandIndex2
									{
										OFFSET 3.676399 0.000000 0.000000
										CHANNELS 6 Xposition Yposition Zposition Xrotation Yrotation Zrotation
										JOINT mixamorig:LeftHandIndex3
										{
											OFFSET 2.883102 0.000000 0.000000
											CHANNELS 6 Xposition Yposition Zposition Xrotation Yrotation Zrotation
											JOINT mixamorig:LeftHandIndex4
											{
												OFFSET 2.392700 0.000000 0.000000
												CHANNELS 6 Xposition Yposition Zposition Xrotation Yrotation Zrotation
												End Site
												{
													OFFSET 0.000000 2.392700 0.001080
												}
											}
										}
									}
								}
								JOINT mixamorig:LeftHandMiddle1
								{
									OFFSET 9.533401 0.000000 0.000000
									CHANNELS 6 Xposition Yposition Zposition Xrotation Yrotation Zrotation
									JOINT mixamorig:LeftHandMiddle2
									{
										OFFSET 3.698196 0.000000 0.000000
										CHANNELS 6 Xposition Yposition Zposition Xrotation Yrotation Zrotation
										JOINT mixamorig:LeftHandMiddle3
										{
											OFFSET 2.950897 0.000000 0.000000
											CHANNELS 6 Xposition Yposition Zposition Xrotation Yrotation Zrotation
											JOINT mixamorig:LeftHandMiddle4
											{
												OFFSET 2.833900 0.000000 0.000000
												CHANNELS 6 Xposition Yposition Zposition Xrotation Yrotation Zrotation
												End Site
												{
													OFFSET 0.000000 2.833893 0.001278
												}
											}
										}
									}
								}
								JOINT mixamorig:LeftHandRing1
								{
									OFFSET 9.104500 -0.043060 -1.865119
									CHANNELS 6 Xposition Yposition Zposition Xrotation Yrotation Zrotation
									JOINT mixamorig:LeftHandRing2
									{
										OFFSET 3.153999 0.000000 0.000000
										CHANNELS 6 Xposition Yposition Zposition Xrotation Yrotation Zrotation
										JOINT mixamorig:LeftHandRing3
										{
											OFFSET 2.937698 0.000000 0.000000
											CHANNELS 6 Xposition Yposition Zposition Xrotation Yrotation Zrotation
											JOINT mixamorig:LeftHandRing4
											{
												OFFSET 2.647499 0.000000 0.000000
												CHANNELS 6 Xposition Yposition Zposition Xrotation Yrotation Zrotation
												End Site
												{
													OFFSET 0.000000 2.647507 0.001195
												}
											}
										}
									}
								}
								JOINT mixamorig:LeftHandPinky1
								{
									OFFSET 8.077797 -0.486984 -3.806321
									CHANNELS 6 Xposition Yposition Zposition Xrotation Yrotation Zrotation
									JOINT mixamorig:LeftHandPinky2
									{
										OFFSET 3.599998 0.000000 0.000000
										CHANNELS 6 Xposition Yposition Zposition Xrotation Yrotation Zrotation
										JOINT mixamorig:LeftHandPinky3
										{
											OFFSET 2.114197 0.000000 0.000000
											CHANNELS 6 Xposition Yposition Zposition Xrotation Yrotation Zrotation
											JOINT mixamorig:LeftHandPinky4
											{
												OFFSET 1.975700 0.000000 0.000000
												CHANNELS 6 Xposition Yposition Zposition Xrotation Yrotation Zrotation
												End Site
												{
													OFFSET 0.000000 1.975693 0.000892
												}
											}
										}
									}
								}
							}
						}
					}
				}
				JOINT mixamorig:RightShoulder
				{
					OFFSET -4.570000 10.946198 -2.628000
					CHANNELS 6 Xposition Yposition Zposition Xrotation Yrotation Zrotation
					JOINT mixamorig:RightArm
					{
						OFFSET -10.592800 -0.524796 -2.232100
						CHANNELS 6 Xposition Yposition Zposition Xrotation Yrotation Zrotation
						JOINT mixamorig:RightForeArm
						{
							OFFSET -27.841499 0.000000 0.000000
							CHANNELS 6 Xposition Yposition Zposition Xrotation Yrotation Zrotation
							JOINT mixamorig:RightHand
							{
								OFFSET -28.328800 0.000000 0.000000
								CHANNELS 6 Xposition Yposition Zposition Xrotation Yrotation Zrotation
								JOINT mixamorig:RightHandPinky1
								{
									OFFSET -8.076698 -0.486725 -3.806227
									CHANNELS 6 Xposition Yposition Zposition Xrotation Yrotation Zrotation
									JOINT mixamorig:RightHandPinky2
									{
										OFFSET -3.599998 0.000000 0.000000
										CHANNELS 6 Xposition Yposition Zposition Xrotation Yrotation Zrotation
										JOINT mixamorig:RightHandPinky3
										{
											OFFSET -2.114197 0.000000 0.000000
											CHANNELS 6 Xposition Yposition Zposition Xrotation Yrotation Zrotation
											JOINT mixamorig:RightHandPinky4
											{
												OFFSET -1.975700 0.000000 0.000000
												CHANNELS 6 Xposition Yposition Zposition Xrotation Yrotation Zrotation
												End Site
												{
													OFFSET 0.000000 1.975693 0.000919
												}
											}
										}
									}
								}
								JOINT mixamorig:RightHandRing1
								{
									OFFSET -9.103600 -0.043030 -1.865120
									CHANNELS 6 Xposition Yposition Zposition Xrotation Yrotation Zrotation
									JOINT mixamorig:RightHandRing2
									{
										OFFSET -3.153999 0.000000 0.000000
										CHANNELS 6 Xposition Yposition Zposition Xrotation Yrotation Zrotation
										JOINT mixamorig:RightHandRing3
										{
											OFFSET -2.937698 0.000000 0.000000
											CHANNELS 6 Xposition Yposition Zposition Xrotation Yrotation Zrotation
											JOINT mixamorig:RightHandRing4
											{
												OFFSET -2.647499 0.000000 0.000000
												CHANNELS 6 Xposition Yposition Zposition Xrotation Yrotation Zrotation
												End Site
												{
													OFFSET 0.000000 2.647507 0.001231
												}
											}
										}
									}
								}
								JOINT mixamorig:RightHandMiddle1
								{
									OFFSET -9.532501 0.000000 0.000000
									CHANNELS 6 Xposition Yposition Zposition Xrotation Yrotation Zrotation
									JOINT mixamorig:RightHandMiddle2
									{
										OFFSET -3.698196 0.000000 0.000000
										CHANNELS 6 Xposition Yposition Zposition Xrotation Yrotation Zrotation
										JOINT mixamorig:RightHandMiddle3
										{
											OFFSET -2.950897 0.000000 0.000000
											CHANNELS 6 Xposition Yposition Zposition Xrotation Yrotation Zrotation
											JOINT mixamorig:RightHandMiddle4
											{
												OFFSET -2.833900 0.000000 0.000000
												CHANNELS 6 Xposition Yposition Zposition Xrotation Yrotation Zrotation
												End Site
												{
													OFFSET 0.000000 2.833893 0.001318
												}
											}
										}
									}
								}
								JOINT mixamorig:RightHandIndex1
								{
									OFFSET -9.108299 -0.517853 2.259859
									CHANNELS 6 Xposition Yposition Zposition Xrotation Yrotation Zrotation
									JOINT mixamorig:RightHandIndex2
									{
										OFFSET -3.676399 0.000000 0.000000
										CHANNELS 6 Xposition Yposition Zposition Xrotation Yrotation Zrotation
										JOINT mixamorig:RightHandIndex3
										{
											OFFSET -2.883102 0.000000 0.000000
											CHANNELS 6 Xposition Yposition Zposition Xrotation Yrotation Zrotation
											JOINT mixamorig:RightHandIndex4
											{
												OFFSET -2.392700 0.000000 0.000000
												CHANNELS 6 Xposition Yposition Zposition Xrotation Yrotation Zrotation
												End Site
												{
													OFFSET 0.000000 2.392700 0.001113
												}
											}
										}
									}
								}
								JOINT mixamorig:RightHandThumb1
								{
									OFFSET -2.464798 -1.573944 2.681868
									CHANNELS 6 Xposition Yposition Zposition Xrotation Yrotation Zrotation
									JOINT mixamorig:RightHandThumb2
									{
										OFFSET -3.229782 -1.864716 1.864716
										CHANNELS 6 Xposition Yposition Zposition Xrotation Yrotation Zrotation
										JOINT mixamorig:RightHandThumb3
										{
											OFFSET -2.652542 -1.531448 1.531448
											CHANNELS 6 Xposition Yposition Zposition Xrotation Yrotation Zrotation
											JOINT mixamorig:RightHandThumb4
											{
												OFFSET -1.954605 -1.128494 1.128493
												CHANNELS 6 Xposition Yposition Zposition Xrotation Yrotation Zrotation
												End Site
												{
													OFFSET 0.000412 2.523392 0.000704
												}
											}
										}
									}
								}
							}
						}
					}
				}
			}
		}
	}
	JOINT mixamorig:LeftUpLeg
	{
		OFFSET 8.207800 -6.751701 -1.599600
		CHANNELS 6 Xposition Yposition Zposition Xrotation Yrotation Zrotation
		JOINT mixamorig:LeftLeg
		{
			OFFSET 0.000000 -44.370499 0.284600
			CHANNELS 6 Xposition Yposition Zposition Xrotation Yrotation Zrotation
			JOINT mixamorig:LeftFoot
			{
				OFFSET 0.000000 -44.427898 -2.982200
				CHANNELS 6 Xposition Yposition Zposition Xrotation Yrotation Zrotation
				JOINT mixamorig:LeftToeBase
				{
					OFFSET 0.000000 -8.728700 10.710600
					CHANNELS 6 Xposition Yposition Zposition Xrotation Yrotation Zrotation
					JOINT mixamorig:LeftToe_End
					{
						OFFSET 0.000000 -0.000700 9.278099
						CHANNELS 6 Xposition Yposition Zposition Xrotation Yrotation Zrotation
						End Site
						{
							OFFSET 0.000000 9.278100 0.000000
						}
					}
				}
			}
		}
	}
	JOINT mixamorig:RightUpLeg
	{
		OFFSET -8.207800 -6.751701 -1.599600
		CHANNELS 6 Xposition Yposition Zposition Xrotation Yrotation Zrotation
		JOINT mixamorig:RightLeg
		{
			OFFSET 0.000000 -44.370499 0.286200
			CHANNELS 6 Xposition Yposition Zposition Xrotation Yrotation Zrotation
			JOINT mixamorig:RightFoot
			{
				OFFSET 0.000000 -44.427700 -2.983800
				CHANNELS 6 Xposition Yposition Zposition Xrotation Yrotation Zrotation
				JOINT mixamorig:RightToeBase
				{
					OFFSET 0.000000 -8.728700 10.710600
					CHANNELS 6 Xposition Yposition Zposition Xrotation Yrotation Zrotation
					JOINT mixamorig:RightToe_End
					{
						OFFSET 0.000000 -0.000700 9.278100
						CHANNELS 6 Xposition Yposition Zposition Xrotation Yrotation Zrotation
						End Site
						{
							OFFSET 0.000000 9.278100 0.000000
						}
					}
				}
			}
		}
	}
}
MOTION
Frames: 3
Frame Time: 0.016667
0.687513 137.715027 -0.175745 -14.445077 -6.855305 0.893809 0.000001 10.181570 0.131497 33.171702 -8.970855 0.358707 -0.000001 10.083493 -1.000802 -8.506937 -1.509343 0.786885 0.000000 9.099987 -1.373398 -8.473653 -1.516609 1.050238 0.000001 16.671722 -2.516201 15.168348 2.391527 -4.950105 0.000001 9.617880 1.685000 0.619922 15.194137 -10.059873 -0.000001 17.815216 2.585001 0.000000 -0.000000 0.000000 3.067599 6.409515 9.283601 0.000000 -0.000000 0.000000 -3.067601 6.409485 9.283502 0.000000 -0.000000 0.000000 4.570403 10.946003 -2.628000 -2.613983 10.417064 16.346680 10.592398 -0.524610 -2.232105 -27.899356 22.727478 -58.526798 27.841486 -0.000005 0.000009 0.000059 -60.579509 0.000063 28.328796 -0.000015 -0.000015 31.508923 17.339931 35.726179 2.466100 -1.576229 2.681696 3.233575 9.125572 1.139650 3.229787 -1.864698 1.864719 1.207925 -0.209766 -1.050992 2.652624 -1.531502 1.531486 -1.835678 -0.614907 2.890146 1.954620 -1.128476 1.128506 -0.000001 0.000001 -0.000000 9.109310 -0.518104 2.259872 1.809745 4.791124 -33.940214 3.676394 0.000033 0.000003 -0.000000 0.000007 -0.000017 2.883101 0.000003 0.000016 0.022714 -0.560039 4.645925 2.392697 0.000012 0.000003 -0.000001 -0.000002 -0.000002 9.533415 0.000006 0.000011 1.482325 4.544545 -27.238818 3.698209 -0.000005 -0.000002 0.027805 0.619461 -5.140068 2.950898 -0.000008 -0.000010 0.006787 -0.306402 2.539703 2.833901 -0.000030 -0.000008 0.000001 -0.000001 -0.000000 9.104506 -0.043075 -1.865121 1.817834 5.221137 -26.888778 3.153999 0.000017 -0.000001 0.026944 0.609745 -5.059289 2.937689 -0.000027 -0.000008 0.005137 -0.266623 2.209708 2.647496 -0.000014 0.000007 0.000003 -0.000001 -0.000002 8.077785 -0.486994 -3.806321 5.323088 10.236221 -32.627329 3.599992 -0.000021 0.000003 -0.018116 -4.056671 -0.491019 2.114193 0.000022 0.000006 0.013282 -0.428298 3.551339 1.975695 0.000002 -0.000014 0.000002 -0.000002 -0.000001 -4.569999 10.946205 -2.628001 0.076720 -1.181031 -2.927276 -10.592800 -0.524808 -2.232100 -8.542111 -55.042756 48.796511 -27.841492 -0.000001 -0.000003 0.000694 84.330706 -0.000663 -28.328798 0.000008 0.000006 22.395676 -24.103043 -31.814523 -8.076707 -0.486712 -3.806231 -2.472280 -9.819103 -13.902186 -3.600004 -0.000009 0.000001 1.049301 -3.678101 31.835689 -2.114189 0.000003 -0.000007 0.143774 -1.409497 11.648217 -1.975702 -0.000002 -0.000004 -0.000003 -0.000000 0.000000 -9.103608 -0.043021 -1.865114 0.014681 -7.503182 -0.342734 -3.153991 -0.000001 -0.000006 0.341166 -2.155262 17.987665 -2.937698 -0.000009 0.000004 -1.406864 -1.335331 9.016191 -2.647500 -0.000017 -0.000005 -0.000002 -0.000000 0.000000 -9.532505 -0.000001 -0.000002 1.355480 -6.464371 13.231425 -3.698196 0.000005 0.000011 0.116664 -1.270924 10.488941 -2.950890 0.000015 0.000003 -0.892263 -0.398281 2.889786 -2.833900 -0.000046 -0.000008 -0.000001 0.000001 -0.000000 -9.108303 -0.517843 2.259863 2.739996 -6.627843 29.658160 -3.676391 -0.000011 -0.000010 -0.000011 -0.000009 0.000110 -2.883099 -0.000040 -0.000006 0.013318 0.430956 -3.538608 -2.392694 0.000016 -0.000002 0.000001 -0.000000 0.000000 -2.464790 -1.573944 2.681859 7.964565 -8.561004 7.629670 -3.229788 -1.864699 1.864714 1.571682 0.187107 1.723122 -2.652539 -1.531460 1.531451 -1.738011 0.948221 -2.223619 -1.954609 -1.128495 1.128498 0.000001 -0.000002 -0.000002 8.207801 -6.751728 -1.599601 -2.729081 -2.431679 7.243007 -0.000000 -44.370510 0.284593 38.921365 9.499195 -5.276789 -0.000001 -44.427898 -2.982199 22.053371 3.346084 -7.911986 -0.000001 -8.728700 10.710601 -1.374987 -0.000006 0.000006 -0.000000 -0.000699 9.278099 -0.000002 -0.000001 0.000001 -8.207799 -6.751717 -1.599597 -55.739248 -1.825004 -0.360113 0.000000 -44.370495 0.286204 87.343394 -4.390000 4.144430 -0.000001 -44.427696 -2.983803 -7.544040 -0.674143 5.926769 -0.000002 -8.728712 10.710599 -0.558827 -0.000001 0.000001 -0.000002 -0.000710 9.278105 0.000000 -0.000000 0.000000 
0.654659 137.790909 -0.202204 -14.444156 -6.831718 0.738773 0.000000 10.181593 0.131496 33.350099 -9.022450 0.524652 -0.000002 10.083502 -1.000798 -8.689058 -1.511156 0.748898 0.000001 9.100005 -1.373405 -8.655038 -1.527156 1.021684 0.000000 16.671722 -2.516199 15.231962 2.421701 -4.936126 -0.000000 9.617923 1.684996 0.795501 15.109085 -9.566840 -0.000002 17.815216 2.584999 0.000000 -0.000000 0.000000 3.067598 6.409515 9.283601 0.000000 -0.000000 0.000000 -3.067601 6.409500 9.283502 0.000000 -0.000000 0.000000 4.570399 10.946014 -2.628000 -2.873230 11.540785 16.329247 10.592413 -0.524565 -2.232105 -27.261020 21.788730 -60.360984 27.841494 -0.000004 0.000011 -0.000019 -59.278966 -0.000018 28.328804 0.000000 -0.000003 31.387141 17.021677 36.210706 2.466096 -1.576230 2.681698 3.353953 9.207709 0.992017 3.229793 -1.864703 1.864718 1.208032 -0.209624 -1.050957 2.652621 -1.531510 1.531492 -1.928694 -0.778452 2.914547 1.954590 -1.128482 1.128500 0.000003 -0.000001 -0.000000 9.109303 -0.518105 2.259866 1.853412 4.856890 -33.905544 3.676394 -0.000014 -0.000000 0.000001 0.000009 -0.000016 2.883107 -0.000000 0.000002 0.022881 -0.561963 4.661974 2.392701 -0.000032 0.000007 -0.000001 -0.000001 -0.000000 9.533384 0.000011 0.000001 1.514607 4.607457 -27.225945 3.698193 0.000010 -0.000009 0.027793 0.619277 -5.138605 2.950905 -0.000026 -0.000010 0.006825 -0.307142 2.545919 2.833905 0.000017 -0.000000 0.000000 0.000001 0.000001 9.104484 -0.043067 -1.865114 1.854188 5.291273 -26.896259 3.153994 0.000011 -0.000003 0.026961 0.610003 -5.061533 2.937688 -0.000023 0.000007 0.005130 -0.266197 2.206377 2.647497 -0.000032 -0.000003 0.000005 0.000001 0.000001 8.077784 -0.486985 -3.806310 5.385091 10.322113 -32.662484 3.599998 -0.000022 -0.000017 -0.018114 -4.056674 -0.491022 2.114207 -0.000011 -0.000006 0.013185 -0.426822 3.539051 1.975705 0.000002 -0.000007 0.000001 -0.000003 -0.000001 -4.570001 10.946191 -2.628000 0.078463 -1.144493 -3.050910 -10.592800 -0.524792 -2.232105 -9.852765 -55.633670 46.141596 -27.841511 0.000020 0.000001 0.000582 85.992239 -0.000568 -28.328804 0.000014 0.000011 21.418836 -24.894026 -31.700055 -8.076699 -0.486746 -3.806223 -2.523101 -9.387076 -14.626469 -3.600007 -0.000009 0.000003 1.104389 -3.765184 32.684340 -2.114196 -0.000008 0.000000 0.166782 -1.516758 12.548926 -1.975699 -0.000002 -0.000004 -0.000002 0.000002 -0.000000 -9.103598 -0.043030 -1.865108 -0.027044 -7.337524 -0.659057 -3.153999 0.000006 -0.000009 0.357086 -2.203674 18.406327 -2.937699 -0.000013 0.000007 -1.354549 -1.413996 9.597563 -2.647492 -0.000001 0.000012 -0.000001 -0.000000 0.000000 -9.532505 0.000007 0.000006 1.368739 -6.504416 13.269703 -3.698205 -0.000032 0.000004 0.121677 -1.297708 10.712639 -2.950886 0.000013 0.000011 -0.845747 -0.431563 3.149751 -2.833902 -0.000031 0.000001 -0.000002 -0.000001 0.000001 -9.108299 -0.517854 2.259872 2.892320 -6.836198 30.065830 -3.676398 -0.000028 -0.000012 -0.000009 -0.000013 0.000015 -2.883105 0.000008 -0.000002 0.013438 0.432865 -3.554230 -2.392691 -0.000015 -0.000006 0.000001 0.000001 -0.000000 -2.464797 -1.573951 2.681880 7.161185 -6.960796 8.077351 -3.229793 -1.864685 1.864723 2.229529 -1.777083 1.253177 -2.652543 -1.531455 1.531450 -1.717770 0.919714 -2.209079 -1.954613 -1.128465 1.128503 -0.000002 0.000003 0.000000 8.207801 -6.751700 -1.599601 -2.945734 -2.275968 7.662859 -0.000004 -44.370499 0.284600 41.302567 9.581984 -5.245808 -0.000001 -44.427895 -2.982202 22.130566 2.409723 -7.349875 0.000000 -8.728701 10.710602 -1.495252 0.000000 0.000001 -0.000000 -0.000703 9.278099 0.000003 -0.000000 -0.000000 -8.207799 -6.751703 -1.599601 -55.690057 -1.895994 0.000627 0.000000 -44.370495 0.286213 85.334512 -4.763749 4.367604 0.000000 -44.427696 -2.983802 -7.605650 -0.661563 5.795132 0.000000 -8.728701 10.710606 -0.504098 0.000003 0.000001 -0.000000 -0.000696 9.278108 -0.000000 -0.000001 0.000001 
0.629724 137.881058 -0.233339 -14.436457 -6.789595 0.596751 -0.000000 10.181583 0.131502 33.453095 -9.034190 0.690649 -0.000001 10.083486 -1.000802 -8.801060 -1.509031 0.708043 0.000001 9.100031 -1.373404 -8.766836 -1.532235 0.987211 -0.000000 16.671726 -2.516203 15.296326 2.445878 -4.887911 -0.000002 9.617898 1.685000 0.927570 15.101680 -9.224114 -0.000003 17.815201 2.585001 0.000001 0.000000 -0.000001 3.067597 6.409500 9.283606 0.000001 0.000000 -0.000001 -3.067605 6.409500 9.283502 0.000001 0.000000 -0.000001 4.570402 10.946028 -2.628000 -3.044705 12.280354 16.316554 10.592403 -0.524568 -2.232110 -26.425853 21.464822 -62.038554 27.841503 -0.000016 0.000003 0.000013 -58.306982 0.000018 28.328808 0.000008 -0.000010 31.297412 16.742768 36.690431 2.466109 -1.576188 2.681711 3.440158 9.227468 0.857996 3.229784 -1.864722 1.864703 1.208006 -0.209809 -1.050972 2.652607 -1.531508 1.531490 -1.957378 -0.829106 2.922160 1.954607 -1.128479 1.128481 0.000003 0.000002 -0.000001 9.109292 -0.518099 2.259878 1.870090 4.881020 -33.918866 3.676393 0.000018 0.000007 0.000000 0.000005 -0.000019 2.883099 -0.000001 -0.000008 0.022898 -0.562321 4.664813 2.392699 -0.000015 0.000007 -0.000002 -0.000002 -0.000003 9.533405 0.000010 0.000013 1.522257 4.620443 -27.253635 3.698198 -0.000019 0.000003 0.027841 0.619912 -5.143921 2.950902 0.000006 -0.000014 0.006814 -0.306978 2.544621 2.833906 -0.000001 -0.000012 0.000002 0.000001 0.000001 9.104489 -0.043073 -1.865106 1.857879 5.293929 -26.945399 3.154004 0.000008 -0.000007 0.027050 0.611091 -5.070650 2.937688 -0.000016 -0.000000 0.005107 -0.265557 2.201065 2.647498 -0.000016 -0.000017 0.000004 0.000001 0.000000 8.077788 -0.486980 -3.806309 5.391187 10.311175 -32.744378 3.599998 -0.000007 0.000002 -0.018113 -4.056673 -0.491022 2.114198 -0.000009 -0.000016 0.013118 -0.425895 3.531346 1.975696 0.000016 -0.000032 -0.000002 -0.000000 -0.000001 -4.570001 10.946209 -2.628000 0.085751 -1.045569 -3.196248 -10.592801 -0.524809 -2.232099 -11.455604 -56.146443 43.377551 -27.841518 -0.000013 0.000001 0.002348 87.535226 -0.002399 -28.328802 -0.000002 -0.000001 20.531071 -25.528042 -31.447803 -8.076694 -0.486719 -3.806238 -2.577048 -9.011727 -15.345072 -3.599983 -0.000030 0.000011 1.150159 -3.835427 33.374910 -2.114207 -0.000018 -0.000007 0.187640 -1.607571 13.314084 -1.975702 0.000016 -0.000010 -0.000000 -0.000000 0.000000 -9.103608 -0.043041 -1.865134 -0.061437 -7.177254 -0.929609 -3.154004 0.000001 0.000000 0.370175 -2.242593 18.743846 -2.937692 -0.000021 0.000010 -1.316629 -1.480045 10.082631 -2.647495 -0.000001 -0.000003 -0.000002 -0.000000 0.000001 -9.532514 0.000007 -0.000010 1.378886 -6.497720 13.402059 -3.698186 -0.000001 -0.000006 0.126224 -1.321559 10.911979 -2.950893 -0.000001 -0.000004 -0.815722 -0.458643 3.360064 -2.833901 0.000000 -0.000010 -0.000001 -0.000000 0.000000 -9.108295 -0.517843 2.259849 3.001506 -6.944621 30.633730 -3.676397 -0.000005 -0.000010 0.000002 -0.000009 0.000149 -2.883100 -0.000032 -0.000008 0.013705 0.437115 -3.589179 -2.392693 0.000030 0.000007 0.000001 -0.000001 0.000000 -2.464806 -1.573939 2.681861 6.273702 -5.205355 8.660098 -3.229781 -1.864681 1.864713 3.293781 -4.746287 0.606066 -2.652542 -1.531443 1.531457 -1.652492 0.800935 -2.197140 -1.954611 -1.128495 1.128491 -0.000000 0.000001 -0.000001 8.207801 -6.751727 -1.599599 -3.233610 -2.193414 8.053443 -0.000002 -44.370491 0.284600 43.617772 9.671246 -5.224416 -0.000001 -44.427898 -2.982201 22.269909 1.468942 -6.961721 0.000000 -8.728700 10.710604 -1.549121 0.000001 -0.000001 0.000002 -0.000701 9.278101 0.000001 0.000000 0.000000 -8.207800 -6.751731 -1.599599 -55.411057 -1.878157 0.329943 -0.000001 -44.370502 0.286195 83.087270 -5.058841 4.641275 0.000001 -44.427711 -2.983803 -7.582812 -0.661863 5.803178 0.000002 -8.728696 10.710599 -0.507183 -0.000003 -0.000000 0.000001 -0.000702 9.278099 -0.000000 0.000000 -0.000000 
